<svg width="1000" viewBox="0 0 1301 1696" fill="none" xmlns="http://www.w3.org/2000/svg">
                <path d="M51.192 45.088C51.192 48.8 50.936 52.1067 50.424 55.008C49.912 57.9093 49.0373 60.384 47.8 62.432C46.6053 64.4373 45.048 65.9733 43.128 67.04C41.2507 68.1067 38.9467 68.64 36.216 68.64C32.8453 68.64 30.0507 67.7013 27.832 65.824C25.656 63.9467 24.0347 61.2587 22.968 57.76C21.944 54.2187 21.432 49.9947 21.432 45.088C21.432 40.1813 21.9013 35.9787 22.84 32.48C23.8213 28.9813 25.4 26.2933 27.576 24.416C29.752 22.5387 32.6533 21.6 36.28 21.6C39.6933 21.6 42.488 22.5387 44.664 24.416C46.8827 26.2507 48.5253 28.9387 49.592 32.48C50.6587 35.9787 51.192 40.1813 51.192 45.088ZM29.944 45.152C29.944 48.864 30.136 51.9787 30.52 54.496C30.904 56.9707 31.5653 58.848 32.504 60.128C33.4427 61.3653 34.7013 61.984 36.28 61.984C37.8587 61.984 39.096 61.3653 39.992 60.128C40.9307 58.8907 41.6133 57.0133 42.04 54.496C42.4667 51.9787 42.68 48.864 42.68 45.152C42.68 41.3973 42.4667 38.2827 42.04 35.808C41.6133 33.2907 40.9307 31.4133 39.992 30.176C39.096 28.896 37.8587 28.256 36.28 28.256C34.7013 28.256 33.4427 28.896 32.504 30.176C31.5653 31.4133 30.904 33.2693 30.52 35.744C30.136 38.2187 29.944 41.3547 29.944 45.152ZM78.073 68H69.561V39.52C69.561 38.5813 69.561 37.6213 69.561 36.64C69.6037 35.6587 69.625 34.6773 69.625 33.696C69.6677 32.672 69.7103 31.7333 69.753 30.88C69.3263 31.3067 68.8357 31.8187 68.281 32.416C67.769 33.0133 67.193 33.5893 66.553 34.144L61.817 38.24L57.465 33.248L70.777 22.304H78.073V68Z" fill="black"/>
                <path d="M22 78H457V542H22V78Z" fill="#F0F0F0"/>
                <path d="M490.16 103.56V104C490.16 107.2 487.64 110.24 481.92 111.28L484.04 115.4C491.16 113.96 494.44 109.48 494.44 104V103.56H490.16ZM491.24 103.56V104C491.24 109.24 494.52 113.52 501.52 114.84L503.6 110.76C498 109.76 495.52 107 495.52 104V103.56H491.24ZM482.92 100.2V104.28H502.72V100.2H482.92ZM490.16 96.6V103.12H495.52V96.6H490.16ZM490.12 117.56V132.44H495.44V117.56H490.12ZM506.32 96.52V133.56H511.6V96.52H506.32ZM481.36 121.28C487.96 121.28 496.56 121.16 504.56 119.72L504.2 115.88C496.44 116.92 487.44 116.96 480.72 116.96L481.36 121.28ZM519.237 99.84V124.76H537.037V99.84H519.237ZM531.837 104V120.56H524.477V104H531.837ZM542.797 96.48V133.64H548.157V96.48H542.797ZM554.194 113.12V117H587.754V113.12H554.194ZM557.954 118.84V122.44H578.514V124.28H558.034V130.8H563.314V127.64H583.754V118.84H557.954ZM558.034 129.68V133.28H584.794V129.68H558.034ZM558.314 97.16V100.72H578.434V102.56H558.354V108.92H563.634V105.88H583.674V97.16H558.314ZM558.354 107.8V111.4H584.354V107.8H558.354ZM617.316 119.56C609.316 119.56 604.196 122.2 604.196 126.6C604.196 130.92 609.316 133.56 617.316 133.56C625.316 133.56 630.436 130.92 630.436 126.6C630.436 122.2 625.316 119.56 617.316 119.56ZM617.316 123.56C622.316 123.56 625.156 124.6 625.156 126.6C625.156 128.56 622.316 129.56 617.316 129.56C612.316 129.56 609.476 128.56 609.476 126.6C609.476 124.6 612.316 123.56 617.316 123.56ZM604.596 98.16V102.36H628.036V98.16H604.596ZM600.836 113.04V117.28H634.196V113.04H600.836ZM613.196 106.6V114.12H618.476V106.6H613.196ZM624.956 98.16V101.2C624.956 104.08 624.956 106.76 623.956 110.56L629.236 111.12C630.236 107.28 630.236 104.12 630.236 101.2V98.16H624.956ZM645.113 119.92V133.56H650.553V119.92H645.113ZM657.913 119.92V133.56H663.353V119.92H657.913ZM637.553 117.12V121.4H671.113V117.12H637.553ZM654.233 97.76C646.353 97.76 640.873 101 640.873 106.08C640.873 111.08 646.353 114.32 654.233 114.32C662.153 114.32 667.633 111.08 667.633 106.08C667.633 101 662.153 97.76 654.233 97.76ZM654.233 102C659.113 102 662.153 103.44 662.153 106.08C662.153 108.68 659.113 110.12 654.233 110.12C649.393 110.12 646.313 108.68 646.313 106.08C646.313 103.44 649.393 102 654.233 102ZM698.11 96.52V133.56H703.39V96.52H698.11ZM702.19 110.96V115.4H708.75V110.96H702.19ZM674.19 102V106.24H695.75V102H674.19ZM685.03 108.32C679.63 108.32 675.63 112 675.63 117.16C675.63 122.32 679.63 126 685.03 126C690.43 126 694.43 122.32 694.43 117.16C694.43 112 690.43 108.32 685.03 108.32ZM685.03 112.64C687.55 112.64 689.35 114.32 689.35 117.16C689.35 120 687.55 121.68 685.03 121.68C682.51 121.68 680.71 120 680.71 117.16C680.71 114.32 682.51 112.64 685.03 112.64ZM682.35 97.12V103.6H687.67V97.12H682.35ZM734.827 96.48V133.64H740.187V96.48H734.827ZM738.987 110.2V114.56H745.547V110.2H738.987ZM712.587 120.32V124.72H715.707C722.147 124.72 727.227 124.56 732.827 123.56L732.307 119.16C726.867 120.12 721.947 120.32 715.707 120.32H712.587ZM712.587 99.92V122.44H717.867V104.2H729.867V99.92H712.587Z" fill="#393939"/>
                <path d="M497.596 161.679V162.933C497.596 166.86 492.481 170.292 487.234 171.051L488.29 173.229C494.296 172.206 499.972 168.279 499.972 162.933V161.679H497.596ZM498.289 161.679V162.933C498.289 168.279 503.932 172.206 509.971 173.229L510.994 171.051C505.78 170.292 500.632 166.86 500.632 162.933V161.679H498.289ZM497.695 177.189V188.574H500.401V177.189H497.695ZM485.65 175.737V177.981H512.611V175.737H485.65ZM488.158 160.59V162.801H510.004V160.59H488.158ZM530.23 164.22V166.431H538.843V164.22H530.23ZM530.23 170.655V172.866H538.909V170.655H530.23ZM537.787 158.775V180.852H540.526V158.775H537.787ZM521.353 185.67V187.914H541.252V185.67H521.353ZM521.353 178.707V186.825H524.092V178.707H521.353ZM517.459 160.722V175.77H530.923V160.722H528.25V166.002H520.165V160.722H517.459ZM520.165 168.147H528.25V173.526H520.165V168.147ZM558.443 170.325V172.602H564.086V170.325H558.443ZM569.069 158.742V188.574H571.709V158.742H569.069ZM563.162 159.369V187.089H565.769V159.369H563.162ZM553.064 161.217C549.203 161.217 546.728 165.21 546.728 171.612C546.728 178.014 549.203 182.007 553.064 182.007C556.925 182.007 559.433 178.014 559.433 171.612C559.433 165.21 556.925 161.217 553.064 161.217ZM553.064 163.758C555.44 163.758 556.925 166.794 556.925 171.612C556.925 176.43 555.44 179.466 553.064 179.466C550.721 179.466 549.236 176.43 549.236 171.612C549.236 166.794 550.721 163.758 553.064 163.758ZM591.605 168.84V171.084H599.921V168.84H591.605ZM584.411 161.316V166.629C584.411 172.173 581.045 177.915 576.656 180.093L578.405 182.271C583.124 179.73 586.655 173.328 586.655 166.629V161.316H584.411ZM584.939 161.316V166.629C584.939 173.163 588.404 179.301 593.222 181.743L594.839 179.532C590.516 177.486 587.15 172.074 587.15 166.629V161.316H584.939ZM598.568 158.709V188.607H601.274V158.709H598.568ZM635.53 158.742V174.681H638.269V158.742H635.53ZM637.51 165.639V167.916H642.691V165.639H637.51ZM627.28 160.821V162.306C627.28 167.289 623.089 171.282 615.235 173.031L616.324 175.242C625.069 173.229 630.316 168.345 630.316 160.821H627.28ZM616.456 160.821V163.065H628.864V160.821H616.456ZM619.492 176.034V187.155H622.198V178.113H638.434V176.034H619.492ZM619.492 186.099V188.178H639.094V186.099H619.492ZM621.274 181.017V183.03H638.071V181.017H621.274ZM645.461 174.417V176.661H672.422V174.417H645.461ZM648.959 185.67V187.914H669.452V185.67H648.959ZM648.959 179.268V186.363H651.698V179.268H648.959ZM658.958 159.732C652.556 159.732 648.464 161.976 648.464 165.705C648.464 169.401 652.556 171.645 658.958 171.645C665.327 171.645 669.452 169.401 669.452 165.705C669.452 161.976 665.327 159.732 658.958 159.732ZM658.958 161.976C663.644 161.976 666.647 163.362 666.647 165.705C666.647 168.048 663.644 169.434 658.958 169.434C654.272 169.434 651.269 168.048 651.269 165.705C651.269 163.362 654.272 161.976 658.958 161.976ZM692.389 163.956V164.352C692.389 167.52 689.485 170.292 685.228 171.249L686.35 173.427C691.399 172.173 694.633 168.741 694.633 164.352V163.956H692.389ZM692.884 163.956V164.352C692.884 168.543 696.118 171.81 701.101 172.998L702.223 170.853C697.999 169.896 695.128 167.355 695.128 164.352V163.956H692.884ZM685.855 162.108V164.286H701.662V162.108H685.855ZM692.356 158.808V163.56H695.128V158.808H692.356ZM692.422 175.803V187.716H695.161V175.803H692.422ZM705.622 158.742V188.607H708.328V158.742H705.622ZM684.205 177.816C689.749 177.816 697.009 177.717 703.708 176.562L703.51 174.549C696.976 175.473 689.485 175.506 683.842 175.506L684.205 177.816ZM715.948 161.646V181.083H729.676V161.646H715.948ZM727.003 163.857V178.872H718.621V163.857H727.003ZM735.913 158.709V188.607H738.652V158.709H735.913ZM744.59 172.602V174.681H771.65V172.602H744.59ZM747.791 177.09V179.037H765.578V181.578H747.89V186.957H750.596V183.459H768.251V177.09H747.791ZM747.89 186.231V188.211H769.208V186.231H747.89ZM748.022 159.6V161.547H765.479V163.956H748.088V169.038H750.794V165.804H768.152V159.6H748.022ZM748.088 168.378V170.358H768.713V168.378H748.088ZM803.2 158.709V188.574H805.972V158.709H803.2ZM805.213 170.82V173.097H810.724V170.82H805.213ZM795.577 161.943V162.372C795.577 170.259 791.452 176.628 783.202 180.819L784.72 182.931C794.356 178.08 798.25 170.424 798.25 161.943H795.577ZM784.588 161.943V164.187H796.996V161.943H784.588ZM821.314 162.009V165.045C821.314 169.302 818.278 173.163 813.79 174.747L815.209 176.925C820.225 175.11 823.591 170.523 823.591 165.045V162.009H821.314ZM821.842 162.009V165.045C821.842 170.292 825.274 174.648 830.224 176.331L831.643 174.186C827.221 172.701 824.119 169.071 824.119 165.045V162.009H821.842ZM814.516 161.217V163.428H830.851V161.217H814.516ZM835.075 158.775V180.588H837.847V158.775H835.075ZM818.674 185.67V187.914H838.738V185.67H818.674ZM818.674 178.542V186.66H821.38V178.542H818.674ZM859.101 161.316V166.662C859.101 172.107 855.702 177.849 851.379 180.027L853.062 182.205C857.781 179.697 861.345 173.262 861.345 166.662V161.316H859.101ZM859.596 161.316V166.662C859.596 173.064 863.061 179.169 867.681 181.644L869.364 179.466C865.14 177.354 861.807 171.909 861.807 166.662V161.316H859.596ZM871.971 158.742V188.574H874.743V158.742H871.971ZM874.083 170.82V173.13H879.627V170.82H874.083ZM902.56 158.775V176.529H905.299V158.775H902.56ZM904.474 166.365V168.675H909.721V166.365H904.474ZM886.489 178.014V188.178H905.299V178.014H886.489ZM902.626 180.192V185.967H889.195V180.192H902.626ZM883.453 172.734V175.011H885.796C891.307 175.011 895.234 174.813 899.953 174.021L899.722 171.777C895.069 172.602 891.208 172.734 885.796 172.734H883.453ZM883.387 160.359V162.603H894.112V166.431H883.453V174.021H886.126V168.543H896.818V160.359H883.387ZM913.843 162.009V164.22H927.34V162.009H913.843ZM918.496 170.523V180.621H921.202V170.523H918.496ZM926.218 162.009V163.593C926.218 166.002 926.218 169.83 925.327 175.209L928.033 175.473C928.891 169.929 928.891 166.035 928.891 163.593V162.009H926.218ZM932.653 158.742V188.574H935.359V158.742H932.653ZM934.633 171.216V173.526H940.144V171.216H934.633ZM912.523 182.073C917.803 182.04 924.799 181.908 930.97 180.918L930.838 178.905C924.799 179.664 917.605 179.763 912.193 179.763L912.523 182.073ZM506.044 203.742V221.694H508.783V203.742H506.044ZM508.024 211.662V213.939H513.205V211.662H508.024ZM490.039 223.377V233.178H508.783V223.377H490.039ZM506.11 225.588V230.967H492.712V225.588H506.11ZM485.716 206.877V209.121H503.338V206.877H485.716ZM494.527 210.573C490.237 210.573 487.366 212.685 487.366 215.919C487.366 219.153 490.237 221.199 494.527 221.199C498.784 221.199 501.655 219.153 501.655 215.919C501.655 212.685 498.784 210.573 494.527 210.573ZM494.527 212.685C497.2 212.685 499.048 213.939 499.048 215.919C499.048 217.866 497.2 219.12 494.527 219.12C491.788 219.12 489.973 217.866 489.973 215.919C489.973 213.939 491.788 212.685 494.527 212.685ZM493.141 203.478V208.032H495.88V203.478H493.141ZM520.99 207.306V207.504C520.99 213.741 520.132 219.978 516.04 225.291L518.185 226.545C522.442 220.737 523.3 213.708 523.3 207.306H520.99ZM516.667 207.306V209.583H522.343V207.306H516.667ZM527.557 207.306V207.537C527.557 213.51 527.194 221.265 522.64 227.205L524.818 228.459C529.504 221.991 529.9 213.609 529.9 207.306H527.557ZM524.29 207.306V209.583H529.009V207.306H524.29ZM538.81 203.742V233.574H541.45V203.742H538.81ZM528.514 215.457V217.701H533.86V215.457H528.514ZM533.299 204.501V232.056H535.873V204.501H533.299ZM574.815 203.742V225.555H577.554V203.742H574.815ZM576.696 212.784V215.061H581.976V212.784H576.696ZM566.664 206.052V207.24C566.664 212.982 561.945 217.602 554.421 219.912L555.609 222.156C564.156 219.417 569.568 213.774 569.568 206.052H566.664ZM555.642 206.052V208.296H568.05V206.052H555.642ZM558.942 230.67V232.914H578.874V230.67H558.942ZM558.942 223.344V231.561H561.681V223.344H558.942ZM605.173 203.709V225.324H607.912V203.709H605.173ZM607.087 212.586V214.863H612.334V212.586H607.087ZM586.132 217.8V220.077H588.442C594.712 220.077 598.243 219.879 602.335 219.021L602.038 216.81C598.045 217.635 594.58 217.8 588.442 217.8H586.132ZM586.132 206.283V219.021H588.838V208.56H599.299V206.283H586.132ZM589.333 230.67V232.914H609.265V230.67H589.333ZM589.333 223.179V231.693H592.072V223.179H589.333ZM636.784 203.742V233.574H639.523V203.742H636.784ZM615.796 208.56V210.771H633.682V208.56H615.796ZM624.772 213.213C620.482 213.213 617.413 216.051 617.413 220.077C617.413 224.103 620.482 226.941 624.772 226.941C629.062 226.941 632.164 224.103 632.164 220.077C632.164 216.051 629.062 213.213 624.772 213.213ZM624.772 215.49C627.511 215.49 629.524 217.371 629.524 220.077C629.524 222.75 627.511 224.664 624.772 224.664C622.033 224.664 620.02 222.75 620.02 220.077C620.02 217.371 622.033 215.49 624.772 215.49ZM623.353 204.039V209.913H626.092V204.039H623.353ZM662.031 208.956V209.352C662.031 212.52 659.127 215.292 654.87 216.249L655.992 218.427C661.041 217.173 664.275 213.741 664.275 209.352V208.956H662.031ZM662.526 208.956V209.352C662.526 213.543 665.76 216.81 670.743 217.998L671.865 215.853C667.641 214.896 664.77 212.355 664.77 209.352V208.956H662.526ZM655.497 207.108V209.286H671.304V207.108H655.497ZM661.998 203.808V208.56H664.77V203.808H661.998ZM662.064 220.803V232.716H664.803V220.803H662.064ZM675.264 203.742V233.607H677.97V203.742H675.264ZM653.847 222.816C659.391 222.816 666.651 222.717 673.35 221.562L673.152 219.549C666.618 220.473 659.127 220.506 653.484 220.506L653.847 222.816ZM685.591 206.646V226.083H699.319V206.646H685.591ZM696.646 208.857V223.872H688.264V208.857H696.646ZM705.556 203.709V233.607H708.295V203.709H705.556ZM714.232 217.602V219.681H741.292V217.602H714.232ZM717.433 222.09V224.037H735.22V226.578H717.532V231.957H720.238V228.459H737.893V222.09H717.433ZM717.532 231.231V233.211H738.85V231.231H717.532ZM717.664 204.6V206.547H735.121V208.956H717.73V214.038H720.436V210.804H737.794V204.6H717.664ZM717.73 213.378V215.358H738.355V213.378H717.73ZM752.646 216.447V218.658H779.607V216.447H752.646ZM755.913 221.331V223.443H773.469V226.149H755.979V231.792H758.685V228.162H776.175V221.331H755.913ZM755.979 231.132V233.244H777.066V231.132H755.979ZM764.559 205.788V206.745C764.559 209.946 759.609 212.355 754.098 212.85L754.989 214.929C761.358 214.335 766.968 211.332 766.968 206.745V205.788H764.559ZM765.351 205.788V206.745C765.351 211.332 770.961 214.335 777.297 214.929L778.188 212.85C772.677 212.355 767.727 209.946 767.727 206.745V205.788H765.351ZM755.121 204.864V207.042H777.198V204.864H755.121ZM804.718 203.742V218.955H807.49V203.742H804.718ZM795.61 205.194V206.58C795.61 211.761 791.386 215.622 783.532 217.338L784.522 219.582C793.3 217.536 798.613 212.817 798.613 205.194H795.61ZM785.017 205.194V207.438H797.458V205.194H785.017ZM788.185 220.407V222.585H804.751V225.621H788.251V232.188H790.957V227.667H807.49V220.407H788.185ZM788.251 231.099V233.277H808.48V231.099H788.251ZM833.496 204.798V206.448C833.496 210.705 828.249 214.269 822.804 215.094L823.893 217.305C830.097 216.249 835.905 212.157 835.905 206.448V204.798H833.496ZM833.991 204.798V206.448C833.991 212.091 839.832 216.249 845.97 217.305L847.059 215.094C841.68 214.269 836.367 210.606 836.367 206.448V204.798H833.991ZM833.496 222.222V233.574H836.202V222.222H833.496ZM821.451 220.539V222.816H848.412V220.539H821.451ZM867.29 222.09V223.707C867.29 226.578 865.046 229.779 861.284 231.132L862.67 233.178C866.96 231.528 869.402 227.601 869.402 223.707V222.09H867.29ZM867.884 222.09V223.707C867.884 227.667 869.831 231.759 874.121 233.442L875.276 231.363C871.712 229.911 869.93 226.71 869.93 223.707V222.09H867.884ZM878.312 222.09V223.707C878.312 226.281 876.497 229.746 872.966 231.363L874.121 233.442C878.378 231.627 880.358 227.205 880.358 223.707V222.09H878.312ZM878.873 222.09V223.707C878.873 227.832 881.249 231.594 885.605 233.178L886.991 231.132C883.196 229.845 880.985 226.776 880.985 223.707V222.09H878.873ZM881.546 203.775V220.803H884.318V203.775H881.546ZM868.313 205.491C863.792 205.491 860.525 208.329 860.525 212.454C860.525 216.579 863.792 219.384 868.313 219.384C872.834 219.384 876.068 216.579 876.068 212.454C876.068 208.329 872.834 205.491 868.313 205.491ZM868.313 207.768C871.283 207.768 873.428 209.682 873.428 212.454C873.428 215.226 871.283 217.107 868.313 217.107C865.343 217.107 863.198 215.226 863.198 212.454C863.198 209.682 865.343 207.768 868.313 207.768ZM898.175 206.019C893.819 206.019 890.75 210.078 890.75 216.414C890.75 222.783 893.819 226.842 898.175 226.842C902.498 226.842 905.6 222.783 905.6 216.414C905.6 210.078 902.498 206.019 898.175 206.019ZM898.175 208.494C901.046 208.494 902.993 211.596 902.993 216.414C902.993 221.265 901.046 224.433 898.175 224.433C895.304 224.433 893.357 221.265 893.357 216.414C893.357 211.596 895.304 208.494 898.175 208.494ZM912.068 203.709V233.607H914.774V203.709H912.068ZM904.709 215.094V217.338H913.256V215.094H904.709ZM927.18 219.087V228.03H929.886V219.087H927.18ZM938.202 219.087V228.03H940.941V219.087H938.202ZM920.58 227.502V229.779H947.607V227.502H920.58ZM934.044 205.623C927.708 205.623 923.187 208.626 923.187 213.312C923.187 217.965 927.708 220.968 934.044 220.968C940.347 220.968 944.868 217.965 944.868 213.312C944.868 208.626 940.347 205.623 934.044 205.623ZM934.044 207.801C938.829 207.801 942.228 209.979 942.228 213.312C942.228 216.612 938.829 218.79 934.044 218.79C929.259 218.79 925.827 216.612 925.827 213.312C925.827 209.979 929.259 207.801 934.044 207.801Z" fill="#393939"/>
                <rect x="866" y="655" width="435" height="464" fill="#F0F0F0"/>
                <path d="M1263.19 613.088C1263.19 616.8 1262.94 620.107 1262.42 623.008C1261.91 625.909 1261.04 628.384 1259.8 630.432C1258.61 632.437 1257.05 633.973 1255.13 635.04C1253.25 636.107 1250.95 636.64 1248.22 636.64C1244.85 636.64 1242.05 635.701 1239.83 633.824C1237.66 631.947 1236.03 629.259 1234.97 625.76C1233.94 622.219 1233.43 617.995 1233.43 613.088C1233.43 608.181 1233.9 603.979 1234.84 600.48C1235.82 596.981 1237.4 594.293 1239.58 592.416C1241.75 590.539 1244.65 589.6 1248.28 589.6C1251.69 589.6 1254.49 590.539 1256.66 592.416C1258.88 594.251 1260.53 596.939 1261.59 600.48C1262.66 603.979 1263.19 608.181 1263.19 613.088ZM1241.94 613.152C1241.94 616.864 1242.14 619.979 1242.52 622.496C1242.9 624.971 1243.57 626.848 1244.5 628.128C1245.44 629.365 1246.7 629.984 1248.28 629.984C1249.86 629.984 1251.1 629.365 1251.99 628.128C1252.93 626.891 1253.61 625.013 1254.04 622.496C1254.47 619.979 1254.68 616.864 1254.68 613.152C1254.68 609.397 1254.47 606.283 1254.04 603.808C1253.61 601.291 1252.93 599.413 1251.99 598.176C1251.1 596.896 1249.86 596.256 1248.28 596.256C1246.7 596.256 1245.44 596.896 1244.5 598.176C1243.57 599.413 1242.9 601.269 1242.52 603.744C1242.14 606.219 1241.94 609.355 1241.94 613.152ZM1297.82 636H1268.06V630.048L1278.87 618.272C1281.05 615.925 1282.8 613.92 1284.12 612.256C1285.44 610.549 1286.4 608.971 1287 607.52C1287.64 606.069 1287.96 604.491 1287.96 602.784C1287.96 600.693 1287.43 599.136 1286.36 598.112C1285.34 597.045 1283.97 596.512 1282.27 596.512C1280.56 596.512 1278.94 596.917 1277.4 597.728C1275.91 598.496 1274.33 599.605 1272.67 601.056L1267.99 595.744C1269.23 594.635 1270.53 593.632 1271.9 592.736C1273.26 591.797 1274.84 591.051 1276.63 590.496C1278.47 589.941 1280.58 589.664 1282.97 589.664C1285.74 589.664 1288.13 590.197 1290.14 591.264C1292.19 592.288 1293.76 593.717 1294.87 595.552C1295.98 597.387 1296.54 599.52 1296.54 601.952C1296.54 603.829 1296.26 605.557 1295.71 607.136C1295.19 608.715 1294.43 610.272 1293.4 611.808C1292.38 613.344 1291.16 614.923 1289.75 616.544C1288.35 618.165 1286.77 619.936 1285.02 621.856L1278.81 628.64V629.024H1297.82V636Z" fill="black"/>
                <path d="M506.086 727.956V728.352C506.086 731.52 503.182 734.292 498.925 735.249L500.047 737.427C505.096 736.173 508.33 732.741 508.33 728.352V727.956H506.086ZM506.581 727.956V728.352C506.581 732.543 509.815 735.81 514.798 736.998L515.92 734.853C511.696 733.896 508.825 731.355 508.825 728.352V727.956H506.581ZM499.552 726.108V728.286H515.359V726.108H499.552ZM506.053 722.808V727.56H508.825V722.808H506.053ZM506.119 739.803V751.716H508.858V739.803H506.119ZM519.319 722.742V752.607H522.025V722.742H519.319ZM497.902 741.816C503.446 741.816 510.706 741.717 517.405 740.562L517.207 738.549C510.673 739.473 503.182 739.506 497.539 739.506L497.902 741.816ZM529.646 725.646V745.083H543.374V725.646H529.646ZM540.701 727.857V742.872H532.319V727.857H540.701ZM549.611 722.709V752.607H552.35V722.709H549.611ZM564.557 724.59V728.583C564.557 731.949 562.214 735.81 558.287 737.526L559.772 739.671C564.161 737.724 566.735 733.038 566.735 728.583V724.59H564.557ZM564.986 724.59V728.583C564.986 732.972 567.461 737.097 571.751 738.813L573.236 736.734C569.408 735.249 567.164 731.883 567.164 728.583V724.59H564.986ZM580.826 722.775V741.156H583.433V722.775H580.826ZM576.074 730.728V732.972H581.717V730.728H576.074ZM574.424 723.336V740.199H577.031V723.336H574.424ZM573.632 741.816C567.461 741.816 563.699 743.796 563.699 747.195C563.699 750.561 567.461 752.508 573.632 752.508C579.77 752.508 583.598 750.561 583.598 747.195C583.598 743.796 579.77 741.816 573.632 741.816ZM573.632 743.961C578.12 743.961 580.859 745.149 580.859 747.195C580.859 749.208 578.12 750.396 573.632 750.396C569.144 750.396 566.372 749.208 566.372 747.195C566.372 745.149 569.144 743.961 573.632 743.961ZM609.038 722.742V740.331H611.777V722.742H609.038ZM610.622 730.365V732.642H616.133V730.365H610.622ZM592.472 741.684V743.631H609.104V745.908H592.538V750.891H595.211V747.723H611.777V741.684H592.472ZM592.538 750.297V752.244H612.932V750.297H592.538ZM596.465 734.985V738.78H599.204V734.985H596.465ZM588.809 739.671C594.023 739.671 601.118 739.638 607.487 738.516L607.256 736.767C601.118 737.625 593.792 737.658 588.479 737.658L588.809 739.671ZM589.238 725.019V726.966H606.365V725.019H589.238ZM597.818 727.89C593.561 727.89 590.855 729.342 590.855 731.817C590.855 734.292 593.561 735.744 597.818 735.744C602.042 735.744 604.748 734.292 604.748 731.817C604.748 729.342 602.042 727.89 597.818 727.89ZM597.818 729.705C600.491 729.705 602.174 730.497 602.174 731.817C602.174 733.137 600.491 733.962 597.818 733.962C595.145 733.962 593.429 733.137 593.429 731.817C593.429 730.497 595.145 729.705 597.818 729.705ZM596.465 722.445V726.042H599.204V722.445H596.465ZM632.499 723.237C625.899 723.237 622.005 725.085 622.005 728.418C622.005 731.751 625.899 733.599 632.499 733.599C639.066 733.599 642.993 731.751 642.993 728.418C642.993 725.085 639.066 723.237 632.499 723.237ZM632.499 725.316C637.35 725.316 640.155 726.438 640.155 728.418C640.155 730.398 637.35 731.52 632.499 731.52C627.615 731.52 624.81 730.398 624.81 728.418C624.81 726.438 627.615 725.316 632.499 725.316ZM619.002 735.579V737.79H645.963V735.579H619.002ZM622.269 740.331V742.443H639.825V745.083H622.335V750.693H625.041V747.063H642.531V740.331H622.269ZM622.335 750.099V752.244H643.422V750.099H622.335ZM677.843 722.742V738.681H680.582V722.742H677.843ZM679.823 729.639V731.916H685.004V729.639H679.823ZM669.593 724.821V726.306C669.593 731.289 665.402 735.282 657.548 737.031L658.637 739.242C667.382 737.229 672.629 732.345 672.629 724.821H669.593ZM658.769 724.821V727.065H671.177V724.821H658.769ZM661.805 740.034V751.155H664.511V742.113H680.747V740.034H661.805ZM661.805 750.099V752.178H681.407V750.099H661.805ZM663.587 745.017V747.03H680.384V745.017H663.587ZM709.454 722.709V752.607H712.193V722.709H709.454ZM696.452 725.019C692.063 725.019 688.895 729.078 688.895 735.414C688.895 741.783 692.063 745.842 696.452 745.842C700.874 745.842 704.042 741.783 704.042 735.414C704.042 729.078 700.874 725.019 696.452 725.019ZM696.452 727.494C699.389 727.494 701.402 730.596 701.402 735.414C701.402 740.265 699.389 743.433 696.452 743.433C693.548 743.433 691.502 740.265 691.502 735.414C691.502 730.596 693.548 727.494 696.452 727.494ZM738.36 722.742V752.574H741.099V722.742H738.36ZM740.439 734.985V737.295H745.983V734.985H740.439ZM717.999 727.494V729.738H735.588V727.494H717.999ZM726.909 732.213C722.718 732.213 719.649 735.051 719.649 739.077C719.649 743.103 722.718 745.941 726.909 745.941C731.133 745.941 734.169 743.103 734.169 739.077C734.169 735.051 731.133 732.213 726.909 732.213ZM726.909 734.49C729.615 734.49 731.562 736.371 731.562 739.077C731.562 741.75 729.615 743.664 726.909 743.664C724.203 743.664 722.256 741.75 722.256 739.077C722.256 736.371 724.203 734.49 726.909 734.49ZM725.49 723.105V728.517H728.229V723.105H725.49ZM770.235 722.742V752.574H772.974V722.742H770.235ZM761.49 725.943V726.405C761.49 734.325 757.497 740.661 748.884 744.819L750.336 747.03C760.302 742.146 764.196 734.589 764.196 725.943H761.49ZM750.237 725.943V728.187H762.678V725.943H750.237ZM778.879 746.634V748.911H805.906V746.634H778.879ZM790.957 740.232V747.591H793.696V740.232H790.957ZM782.146 724.953V727.164H799.867V731.784H782.245V739.968H784.951V733.995H802.573V724.953H782.146ZM782.245 738.813V741.057H803.266V738.813H782.245ZM837.687 722.775V745.149H840.426V722.775H837.687ZM839.568 732.543V734.853H844.848V732.543H839.568ZM817.359 726.372V728.583H834.981V726.372H817.359ZM826.17 730.233C821.913 730.233 819.009 732.444 819.009 735.81C819.009 739.143 821.913 741.354 826.17 741.354C830.394 741.354 833.298 739.143 833.298 735.81C833.298 732.444 830.394 730.233 826.17 730.233ZM826.17 732.378C828.843 732.378 830.691 733.731 830.691 735.81C830.691 737.856 828.843 739.209 826.17 739.209C823.464 739.209 821.616 737.856 821.616 735.81C821.616 733.731 823.464 732.378 826.17 732.378ZM824.784 722.742V727.527H827.523V722.742H824.784ZM821.847 749.67V751.914H841.779V749.67H821.847ZM821.847 743.367V750.627H824.586V743.367H821.847ZM466.484 770.316V775.662C466.484 781.107 463.085 786.849 458.762 789.027L460.445 791.205C465.164 788.697 468.728 782.262 468.728 775.662V770.316H466.484ZM466.979 770.316V775.662C466.979 782.064 470.444 788.169 475.064 790.644L476.747 788.466C472.523 786.354 469.19 780.909 469.19 775.662V770.316H466.979ZM479.354 767.742V797.574H482.126V767.742H479.354ZM481.466 779.82V782.13H487.01V779.82H481.466ZM509.942 767.775V785.529H512.681V767.775H509.942ZM511.856 775.365V777.675H517.103V775.365H511.856ZM493.871 787.014V797.178H512.681V787.014H493.871ZM510.008 789.192V794.967H496.577V789.192H510.008ZM490.835 781.734V784.011H493.178C498.689 784.011 502.616 783.813 507.335 783.021L507.104 780.777C502.451 781.602 498.59 781.734 493.178 781.734H490.835ZM490.769 769.359V771.603H501.494V775.431H490.835V783.021H493.508V777.543H504.2V769.359H490.769ZM521.226 771.009V773.22H534.723V771.009H521.226ZM525.879 779.523V789.621H528.585V779.523H525.879ZM533.601 771.009V772.593C533.601 775.002 533.601 778.83 532.71 784.209L535.416 784.473C536.274 778.929 536.274 775.035 536.274 772.593V771.009H533.601ZM540.036 767.742V797.574H542.742V767.742H540.036ZM542.016 780.216V782.526H547.527V780.216H542.016ZM519.906 791.073C525.186 791.04 532.182 790.908 538.353 789.918L538.221 787.905C532.182 788.664 524.988 788.763 519.576 788.763L519.906 791.073ZM566.669 768.831C562.247 768.831 558.98 771.537 558.98 775.464C558.98 779.358 562.247 782.064 566.669 782.064C571.124 782.064 574.391 779.358 574.391 775.464C574.391 771.537 571.124 768.831 566.669 768.831ZM566.669 771.075C569.573 771.075 571.718 772.89 571.718 775.464C571.718 778.038 569.573 779.82 566.669 779.82C563.798 779.82 561.62 778.038 561.62 775.464C561.62 772.89 563.798 771.075 566.669 771.075ZM580.001 767.742V783.021H582.773V767.742H580.001ZM563.468 784.473V786.684H580.067V789.687H563.534V796.221H566.207V791.733H582.773V784.473H563.468ZM563.534 795V797.178H583.763V795H563.534ZM604.583 775.464V777.741H611.315V775.464H604.583ZM610.457 767.742V785.529H613.196V767.742H610.457ZM603.395 786.42C597.224 786.42 593.429 788.499 593.429 791.997C593.429 795.528 597.224 797.541 603.395 797.541C609.533 797.541 613.328 795.528 613.328 791.997C613.328 788.499 609.533 786.42 603.395 786.42ZM603.395 788.565C607.883 788.565 610.622 789.819 610.622 791.997C610.622 794.142 607.883 795.396 603.395 795.396C598.907 795.396 596.168 794.142 596.168 791.997C596.168 789.819 598.907 788.565 603.395 788.565ZM596.267 770.745V773.154C596.267 777.444 593.198 781.437 588.776 783.054L590.195 785.232C595.145 783.384 598.511 778.665 598.511 773.154V770.745H596.267ZM596.795 770.745V773.154C596.795 778.17 599.996 782.658 604.847 784.407L606.233 782.229C601.91 780.711 599.006 777.015 599.006 773.154V770.745H596.795ZM589.601 769.92V772.164H605.54V769.92H589.601ZM632.499 768.237C625.899 768.237 622.005 770.085 622.005 773.418C622.005 776.751 625.899 778.599 632.499 778.599C639.066 778.599 642.993 776.751 642.993 773.418C642.993 770.085 639.066 768.237 632.499 768.237ZM632.499 770.316C637.35 770.316 640.155 771.438 640.155 773.418C640.155 775.398 637.35 776.52 632.499 776.52C627.615 776.52 624.81 775.398 624.81 773.418C624.81 771.438 627.615 770.316 632.499 770.316ZM619.002 780.579V782.79H645.963V780.579H619.002ZM622.269 785.331V787.443H639.825V790.083H622.335V795.693H625.041V792.063H642.531V785.331H622.269ZM622.335 795.099V797.244H643.422V795.099H622.335ZM677.843 767.742V783.681H680.582V767.742H677.843ZM679.823 774.639V776.916H685.004V774.639H679.823ZM669.593 769.821V771.306C669.593 776.289 665.402 780.282 657.548 782.031L658.637 784.242C667.382 782.229 672.629 777.345 672.629 769.821H669.593ZM658.769 769.821V772.065H671.177V769.821H658.769ZM661.805 785.034V796.155H664.511V787.113H680.747V785.034H661.805ZM661.805 795.099V797.178H681.407V795.099H661.805ZM663.587 790.017V792.03H680.384V790.017H663.587ZM709.454 767.709V797.607H712.193V767.709H709.454ZM696.452 770.019C692.063 770.019 688.895 774.078 688.895 780.414C688.895 786.783 692.063 790.842 696.452 790.842C700.874 790.842 704.042 786.783 704.042 780.414C704.042 774.078 700.874 770.019 696.452 770.019ZM696.452 772.494C699.389 772.494 701.402 775.596 701.402 780.414C701.402 785.265 699.389 788.433 696.452 788.433C693.548 788.433 691.502 785.265 691.502 780.414C691.502 775.596 693.548 772.494 696.452 772.494ZM726.22 791.469V793.746H753.247V791.469H726.22ZM738.364 784.242V792.228H741.07V784.242H738.364ZM738.298 771.504V773.352C738.298 778.071 732.655 782.262 727.507 783.12L728.629 785.298C734.503 784.077 740.608 779.457 740.608 773.352V771.504H738.298ZM738.793 771.504V773.352C738.793 779.457 744.931 784.011 750.904 785.199L751.993 783.021C746.779 782.163 741.103 778.071 741.103 773.352V771.504H738.793ZM728.431 770.448V772.692H750.97V770.448H728.431ZM763.838 781.14V786.651H766.577V781.14H763.838ZM773.342 781.14V786.651H776.048V781.14H773.342ZM770.042 768.105C763.442 768.105 759.548 769.92 759.548 773.253C759.548 776.586 763.442 778.434 770.042 778.434C776.609 778.434 780.536 776.586 780.536 773.253C780.536 769.92 776.609 768.105 770.042 768.105ZM770.042 770.184C774.893 770.184 777.698 771.306 777.698 773.253C777.698 775.233 774.893 776.355 770.042 776.355C765.158 776.355 762.353 775.233 762.353 773.253C762.353 771.306 765.158 770.184 770.042 770.184ZM756.545 780.216V782.427H783.506V780.216H756.545ZM759.812 785.331V787.443H777.368V790.083H759.878V795.693H762.584V792.063H780.074V785.331H759.812ZM759.878 795.099V797.244H780.965V795.099H759.878ZM786.869 772.824V775.068H801.653V772.824H786.869ZM794.261 777.048C790.565 777.048 787.859 779.853 787.859 783.879C787.859 787.872 790.565 790.677 794.261 790.677C797.99 790.677 800.696 787.872 800.696 783.879C800.696 779.853 797.99 777.048 794.261 777.048ZM794.261 779.391C796.571 779.391 798.254 781.239 798.254 783.879C798.254 786.519 796.571 788.367 794.261 788.367C791.984 788.367 790.334 786.519 790.334 783.879C790.334 781.239 791.984 779.391 794.261 779.391ZM809.54 767.742V797.574H812.18V767.742H809.54ZM804.788 780.282V782.559H810.431V780.282H804.788ZM803.171 768.402V796.122H805.745V768.402H803.171ZM792.941 768.6V774.21H795.647V768.6H792.941ZM823.893 783.087V792.03H826.599V783.087H823.893ZM834.915 783.087V792.03H837.654V783.087H834.915ZM817.293 791.502V793.779H844.32V791.502H817.293ZM830.757 769.623C824.421 769.623 819.9 772.626 819.9 777.312C819.9 781.965 824.421 784.968 830.757 784.968C837.06 784.968 841.581 781.965 841.581 777.312C841.581 772.626 837.06 769.623 830.757 769.623ZM830.757 771.801C835.542 771.801 838.941 773.979 838.941 777.312C838.941 780.612 835.542 782.79 830.757 782.79C825.972 782.79 822.54 780.612 822.54 777.312C822.54 773.979 825.972 771.801 830.757 771.801Z" fill="#393939"/>
                <path d="M499.16 671.56V672C499.16 675.2 496.64 678.24 490.92 679.28L493.04 683.4C500.16 681.96 503.44 677.48 503.44 672V671.56H499.16ZM500.24 671.56V672C500.24 677.24 503.52 681.52 510.52 682.84L512.6 678.76C507 677.76 504.52 675 504.52 672V671.56H500.24ZM491.92 668.2V672.28H511.72V668.2H491.92ZM499.16 664.6V671.12H504.52V664.6H499.16ZM499.12 685.56V700.44H504.44V685.56H499.12ZM515.32 664.52V701.56H520.6V664.52H515.32ZM490.36 689.28C496.96 689.28 505.56 689.16 513.56 687.72L513.2 683.88C505.44 684.92 496.44 684.96 489.72 684.96L490.36 689.28ZM528.237 667.84V692.76H546.037V667.84H528.237ZM540.837 672V688.56H533.477V672H540.837ZM551.797 664.48V701.64H557.157V664.48H551.797ZM583.399 665.6C577.759 665.6 573.519 669.12 573.519 674.08C573.519 679 577.759 682.52 583.399 682.52C589.039 682.52 593.279 679 593.279 674.08C593.279 669.12 589.039 665.6 583.399 665.6ZM583.399 669.92C586.119 669.92 588.119 671.44 588.119 674.08C588.119 676.72 586.119 678.24 583.399 678.24C580.679 678.24 578.639 676.72 578.639 674.08C578.639 671.44 580.679 669.92 583.399 669.92ZM598.399 664.52V683.04H603.759V664.52H598.399ZM579.039 684.56V688.68H598.479V690.88H579.119V699.2H584.319V694.72H603.759V684.56H579.039ZM579.119 697.04V701.16H604.679V697.04H579.119ZM629.836 673.48V677.8H636.876V673.48H629.836ZM635.436 664.52V686.52H640.756V664.52H635.436ZM628.196 687.32C620.356 687.32 615.516 690 615.516 694.48C615.516 699 620.356 701.6 628.196 701.6C636.036 701.6 640.876 699 640.876 694.48C640.876 690 636.036 687.32 628.196 687.32ZM628.196 691.36C633.036 691.36 635.596 692.36 635.596 694.48C635.596 696.56 633.036 697.56 628.196 697.56C623.396 697.56 620.836 696.56 620.836 694.48C620.836 692.36 623.396 691.36 628.196 691.36ZM618.316 668.24V670.56C618.316 675.32 615.676 680.24 609.556 682.32L612.276 686.52C619.356 684.12 622.636 677.64 622.636 670.56V668.24H618.316ZM619.436 668.24V670.56C619.436 677.16 622.596 683.32 629.476 685.6L632.076 681.4C626.236 679.44 623.716 674.92 623.716 670.56V668.24H619.436ZM610.996 666.76V671H630.916V666.76H610.996ZM663.313 665.04C654.833 665.04 649.913 667.28 649.913 671.36C649.913 675.44 654.833 677.68 663.313 677.68C671.753 677.68 676.713 675.44 676.713 671.36C676.713 667.28 671.753 665.04 663.313 665.04ZM663.313 668.92C668.673 668.92 671.193 669.72 671.193 671.36C671.193 673.08 668.673 673.8 663.313 673.8C657.953 673.8 655.433 673.08 655.433 671.36C655.433 669.72 657.953 668.92 663.313 668.92ZM646.553 679.4V683.6H680.033V679.4H646.553ZM650.393 685.68V689.64H670.753V691.52H650.433V698.48H655.673V695.2H675.993V685.68H650.393ZM650.433 697.32V701.32H676.953V697.32H650.433ZM694.756 667.2V671.48H710.596V667.2H694.756ZM699.316 675.84V685.12H704.596V675.84H699.316ZM708.516 667.2V669.52C708.516 672.08 708.516 675.28 707.716 679.84L712.876 680.4C713.756 675.8 713.756 672.12 713.756 669.52V667.2H708.516ZM717.356 664.52V692.24H722.716V664.52H717.356ZM720.596 675.8V680.16H727.116V675.8H720.596ZM697.996 696.68V700.92H723.876V696.68H697.996ZM697.996 689.76V698H703.316V689.76H697.996ZM693.076 687.28C699.436 687.28 708.036 687.12 715.676 685.68L715.356 681.92C707.916 682.96 698.996 683.08 692.596 683.08L693.076 687.28ZM755.433 664.48V701.64H760.753V664.48H755.433ZM731.913 688.68V693H735.193C741.953 693 747.393 692.8 753.393 691.72L752.873 687.44C746.993 688.44 741.753 688.68 735.193 688.68H731.913ZM731.873 667.64V671.88H743.913V677.76H731.913V690.28H737.313V681.96H749.353V667.64H731.873ZM790.469 664.52V701.56H795.749V664.52H790.469ZM794.549 678.96V683.4H801.109V678.96H794.549ZM766.549 670V674.24H788.109V670H766.549ZM777.389 676.32C771.989 676.32 767.989 680 767.989 685.16C767.989 690.32 771.989 694 777.389 694C782.789 694 786.789 690.32 786.789 685.16C786.789 680 782.789 676.32 777.389 676.32ZM777.389 680.64C779.909 680.64 781.709 682.32 781.709 685.16C781.709 688 779.909 689.68 777.389 689.68C774.869 689.68 773.069 688 773.069 685.16C773.069 682.32 774.869 680.64 777.389 680.64ZM774.709 665.12V671.6H780.029V665.12H774.709ZM827.186 664.48V701.64H832.546V664.48H827.186ZM831.346 678.2V682.56H837.906V678.2H831.346ZM804.946 688.32V692.72H808.066C814.506 692.72 819.586 692.56 825.186 691.56L824.666 687.16C819.226 688.12 814.306 688.32 808.066 688.32H804.946ZM804.946 667.92V690.44H810.226V672.2H822.226V667.92H804.946Z" fill="#393939"/>
                <rect x="9" y="1232" width="435" height="464" fill="#F0F0F0"/>
                <path d="M32.192 1190.09C32.192 1193.8 31.936 1197.11 31.424 1200.01C30.912 1202.91 30.0373 1205.38 28.8 1207.43C27.6053 1209.44 26.048 1210.97 24.128 1212.04C22.2507 1213.11 19.9467 1213.64 17.216 1213.64C13.8453 1213.64 11.0507 1212.7 8.832 1210.82C6.656 1208.95 5.03467 1206.26 3.968 1202.76C2.944 1199.22 2.432 1194.99 2.432 1190.09C2.432 1185.18 2.90133 1180.98 3.84 1177.48C4.82133 1173.98 6.4 1171.29 8.576 1169.42C10.752 1167.54 13.6533 1166.6 17.28 1166.6C20.6933 1166.6 23.488 1167.54 25.664 1169.42C27.8827 1171.25 29.5253 1173.94 30.592 1177.48C31.6587 1180.98 32.192 1185.18 32.192 1190.09ZM10.944 1190.15C10.944 1193.86 11.136 1196.98 11.52 1199.5C11.904 1201.97 12.5653 1203.85 13.504 1205.13C14.4427 1206.37 15.7013 1206.98 17.28 1206.98C18.8587 1206.98 20.096 1206.37 20.992 1205.13C21.9307 1203.89 22.6133 1202.01 23.04 1199.5C23.4667 1196.98 23.68 1193.86 23.68 1190.15C23.68 1186.4 23.4667 1183.28 23.04 1180.81C22.6133 1178.29 21.9307 1176.41 20.992 1175.18C20.096 1173.9 18.8587 1173.26 17.28 1173.26C15.7013 1173.26 14.4427 1173.9 13.504 1175.18C12.5653 1176.41 11.904 1178.27 11.52 1180.74C11.136 1183.22 10.944 1186.35 10.944 1190.15ZM65.281 1177.74C65.281 1179.78 64.8757 1181.58 64.065 1183.11C63.2543 1184.65 62.145 1185.91 60.737 1186.89C59.3717 1187.83 57.793 1188.51 56.001 1188.94V1189.13C59.457 1189.55 62.0597 1190.69 63.809 1192.52C65.601 1194.35 66.497 1196.79 66.497 1199.82C66.497 1202.46 65.8997 1204.83 64.705 1206.92C63.5103 1209.01 61.633 1210.65 59.073 1211.85C56.5557 1213.04 53.2917 1213.64 49.281 1213.64C46.849 1213.64 44.6517 1213.43 42.689 1213C40.7263 1212.62 38.8277 1212 36.993 1211.14V1204.04C38.8703 1205.02 40.8117 1205.77 42.817 1206.28C44.8223 1206.79 46.6997 1207.05 48.449 1207.05C51.777 1207.05 54.1237 1206.39 55.489 1205.06C56.8543 1203.7 57.537 1201.82 57.537 1199.43C57.537 1197.9 57.1743 1196.64 56.449 1195.66C55.7663 1194.67 54.657 1193.95 53.121 1193.48C51.6277 1192.97 49.5797 1192.71 46.977 1192.71H43.649V1186.25H47.041C49.4303 1186.25 51.329 1185.95 52.737 1185.35C54.1877 1184.75 55.233 1183.92 55.873 1182.86C56.513 1181.79 56.833 1180.55 56.833 1179.14C56.833 1177.31 56.2783 1175.88 55.169 1174.86C54.1023 1173.83 52.545 1173.32 50.497 1173.32C49.1317 1173.32 47.8517 1173.49 46.657 1173.83C45.4623 1174.17 44.3957 1174.62 43.457 1175.18C42.5183 1175.69 41.6863 1176.24 40.961 1176.84L37.121 1171.27C38.2303 1170.42 39.4677 1169.65 40.833 1168.97C42.241 1168.24 43.7983 1167.69 45.505 1167.3C47.2117 1166.88 49.1317 1166.66 51.265 1166.66C55.745 1166.66 59.201 1167.67 61.633 1169.67C64.065 1171.63 65.281 1174.32 65.281 1177.74Z" fill="black"/>
                <path d="M490.457 1308.96V1311.2H497.981V1308.96H490.457ZM496.43 1300.77V1322.62H499.169V1300.77H496.43ZM480.128 1327.67V1329.91H499.994V1327.67H480.128ZM480.128 1320.71V1328.83H482.867V1320.71H480.128ZM482.24 1304.47V1306.88C482.24 1311.1 479.171 1315.06 474.716 1316.65L476.135 1318.83C481.118 1316.98 484.484 1312.29 484.484 1306.88V1304.47H482.24ZM482.768 1304.47V1306.85C482.768 1311.9 485.969 1316.38 490.82 1318.13L492.206 1315.99C487.883 1314.47 484.979 1310.71 484.979 1306.85V1304.47H482.768ZM475.574 1303.18V1305.39H491.513V1303.18H475.574ZM512.729 1318.53V1323.38H515.468V1318.53H512.729ZM525.269 1300.74V1330.57H528.008V1300.74H525.269ZM527.117 1313.41V1315.72H532.628V1313.41H527.117ZM505.04 1324.9C510.254 1324.9 517.25 1324.86 523.685 1323.71L523.454 1321.66C517.283 1322.55 509.99 1322.62 504.644 1322.62L505.04 1324.9ZM505.139 1304.34V1306.55H522.992V1304.34H505.139ZM514.082 1308.3C509.924 1308.3 507.086 1310.48 507.086 1313.81C507.086 1317.18 509.924 1319.32 514.082 1319.32C518.24 1319.32 521.111 1317.18 521.111 1313.81C521.111 1310.48 518.24 1308.3 514.082 1308.3ZM514.082 1310.41C516.755 1310.41 518.537 1311.76 518.537 1313.81C518.537 1315.86 516.755 1317.21 514.082 1317.21C511.409 1317.21 509.66 1315.86 509.66 1313.81C509.66 1311.76 511.409 1310.41 514.082 1310.41ZM512.729 1300.77V1305.82H515.468V1300.77H512.729ZM549.423 1309.16V1311.4H558.003V1309.16H549.423ZM557.145 1300.77V1322.85H559.884V1300.77H557.145ZM540.711 1327.67V1329.91H560.61V1327.67H540.711ZM540.711 1320.71V1328.83H543.45V1320.71H540.711ZM536.817 1302.72V1317.77H550.281V1302.72H547.608V1308H539.523V1302.72H536.817ZM539.523 1310.15H547.608V1315.53H539.523V1310.15ZM567.042 1305.1V1307.34H591.264V1305.1H567.042ZM565.722 1324.83V1327.11H592.749V1324.83H565.722ZM577.833 1320.11V1325.72H580.539V1320.11H577.833ZM579.153 1309.36C573.147 1309.36 569.418 1311.43 569.418 1315.03C569.418 1318.63 573.147 1320.71 579.153 1320.71C585.192 1320.71 588.921 1318.63 588.921 1315.03C588.921 1311.43 585.192 1309.36 579.153 1309.36ZM579.153 1311.5C583.509 1311.5 586.149 1312.82 586.149 1315.03C586.149 1317.24 583.509 1318.53 579.153 1318.53C574.83 1318.53 572.157 1317.24 572.157 1315.03C572.157 1312.82 574.83 1311.5 579.153 1311.5ZM577.833 1301.24V1306.48H580.539V1301.24H577.833ZM607.7 1301.93V1313.84H627.566V1301.93H624.827V1305.66H610.406V1301.93H607.7ZM610.406 1307.84H624.827V1311.63H610.406V1307.84ZM604.103 1317.01V1319.25H631.064V1317.01H604.103ZM616.247 1312.56V1318H618.953V1312.56H616.247ZM607.601 1327.67V1329.91H628.094V1327.67H607.601ZM607.601 1321.66V1328.43H610.34V1321.66H607.601ZM656.175 1300.77V1322.55H658.947V1300.77H656.175ZM639.774 1327.67V1329.91H659.838V1327.67H639.774ZM639.774 1320.31V1328.43H642.48V1320.31H639.774ZM642.942 1302.82C638.487 1302.82 635.154 1305.86 635.154 1310.18C635.154 1314.47 638.487 1317.54 642.942 1317.54C647.397 1317.54 650.697 1314.47 650.697 1310.18C650.697 1305.86 647.397 1302.82 642.942 1302.82ZM642.942 1305.2C645.846 1305.2 648.057 1307.24 648.057 1310.18C648.057 1313.08 645.846 1315.13 642.942 1315.13C640.038 1315.13 637.827 1313.08 637.827 1310.18C637.827 1307.24 640.038 1305.2 642.942 1305.2ZM686.532 1300.77V1322.55H689.304V1300.77H686.532ZM670.131 1327.67V1329.91H690.195V1327.67H670.131ZM670.131 1320.31V1328.43H672.837V1320.31H670.131ZM673.299 1302.82C668.844 1302.82 665.511 1305.86 665.511 1310.18C665.511 1314.47 668.844 1317.54 673.299 1317.54C677.754 1317.54 681.054 1314.47 681.054 1310.18C681.054 1305.86 677.754 1302.82 673.299 1302.82ZM673.299 1305.2C676.203 1305.2 678.414 1307.24 678.414 1310.18C678.414 1313.08 676.203 1315.13 673.299 1315.13C670.395 1315.13 668.184 1313.08 668.184 1310.18C668.184 1307.24 670.395 1305.2 673.299 1305.2ZM695.176 1314.93V1317.14H722.137V1314.93H695.176ZM708.64 1319.72C702.271 1319.72 698.41 1321.7 698.41 1325.13C698.41 1328.56 702.271 1330.51 708.64 1330.51C715.009 1330.51 718.87 1328.56 718.87 1325.13C718.87 1321.7 715.009 1319.72 708.64 1319.72ZM708.64 1321.89C713.326 1321.89 716.098 1323.05 716.098 1325.13C716.098 1327.17 713.326 1328.36 708.64 1328.36C703.987 1328.36 701.182 1327.17 701.182 1325.13C701.182 1323.05 703.987 1321.89 708.64 1321.89ZM706.891 1303.45V1304.34C706.891 1307.7 702.04 1310.38 696.694 1310.97L697.684 1313.12C703.855 1312.39 709.333 1309.12 709.333 1304.34V1303.45H706.891ZM708.046 1303.45V1304.34C708.046 1309.12 713.491 1312.39 719.662 1313.12L720.652 1310.97C715.306 1310.38 710.455 1307.7 710.455 1304.34V1303.45H708.046ZM697.651 1302.26V1304.47H719.728V1302.26H697.651ZM748.506 1310.84V1313.08H756.822V1310.84H748.506ZM741.312 1303.32V1308.63C741.312 1314.17 737.946 1319.91 733.557 1322.09L735.306 1324.27C740.025 1321.73 743.556 1315.33 743.556 1308.63V1303.32H741.312ZM741.84 1303.32V1308.63C741.84 1315.16 745.305 1321.3 750.123 1323.74L751.74 1321.53C747.417 1319.49 744.051 1314.07 744.051 1308.63V1303.32H741.84ZM755.469 1300.71V1330.61H758.175V1300.71H755.469ZM785.628 1300.71V1330.61H788.367V1300.71H785.628ZM765.663 1303.25V1323.41H779.721V1303.25H776.982V1311.14H768.369V1303.25H765.663ZM768.369 1313.31H776.982V1321.17H768.369V1313.31ZM806.284 1302.79V1305.06C806.284 1310.15 800.674 1314.7 795.427 1315.69L796.648 1317.97C802.621 1316.61 808.66 1311.57 808.66 1305.06V1302.79H806.284ZM806.779 1302.79V1305.06C806.779 1311.6 812.851 1316.61 818.791 1317.97L820.012 1315.69C814.798 1314.7 809.155 1310.18 809.155 1305.06V1302.79H806.779ZM794.338 1324.3V1326.55H821.365V1324.3H794.338ZM824.695 1324.63V1326.91H851.722V1324.63H824.695ZM836.773 1318.23V1325.59H839.512V1318.23H836.773ZM827.962 1302.95V1305.16H845.683V1309.78H828.061V1317.97H830.767V1311.99H848.389V1302.95H827.962ZM828.061 1316.81V1319.06H849.082V1316.81H828.061ZM866.673 1301.93V1313.84H886.539V1301.93H883.8V1305.66H869.379V1301.93H866.673ZM869.379 1307.84H883.8V1311.63H869.379V1307.84ZM863.076 1317.01V1319.25H890.037V1317.01H863.076ZM875.22 1312.56V1318H877.926V1312.56H875.22ZM866.574 1327.67V1329.91H887.067V1327.67H866.574ZM866.574 1321.66V1328.43H869.313V1321.66H866.574ZM915.147 1300.77V1322.55H917.919V1300.77H915.147ZM898.746 1327.67V1329.91H918.81V1327.67H898.746ZM898.746 1320.31V1328.43H901.452V1320.31H898.746ZM901.914 1302.82C897.459 1302.82 894.126 1305.86 894.126 1310.18C894.126 1314.47 897.459 1317.54 901.914 1317.54C906.369 1317.54 909.669 1314.47 909.669 1310.18C909.669 1305.86 906.369 1302.82 901.914 1302.82ZM901.914 1305.2C904.818 1305.2 907.029 1307.24 907.029 1310.18C907.029 1313.08 904.818 1315.13 901.914 1315.13C899.01 1315.13 896.799 1313.08 896.799 1310.18C896.799 1307.24 899.01 1305.2 901.914 1305.2ZM945.505 1300.77V1322.55H948.277V1300.77H945.505ZM929.104 1327.67V1329.91H949.168V1327.67H929.104ZM929.104 1320.31V1328.43H931.81V1320.31H929.104ZM932.272 1302.82C927.817 1302.82 924.484 1305.86 924.484 1310.18C924.484 1314.47 927.817 1317.54 932.272 1317.54C936.727 1317.54 940.027 1314.47 940.027 1310.18C940.027 1305.86 936.727 1302.82 932.272 1302.82ZM932.272 1305.2C935.176 1305.2 937.387 1307.24 937.387 1310.18C937.387 1313.08 935.176 1315.13 932.272 1315.13C929.368 1315.13 927.157 1313.08 927.157 1310.18C927.157 1307.24 929.368 1305.2 932.272 1305.2ZM954.148 1314.93V1317.14H981.109V1314.93H954.148ZM967.612 1319.72C961.243 1319.72 957.382 1321.7 957.382 1325.13C957.382 1328.56 961.243 1330.51 967.612 1330.51C973.981 1330.51 977.842 1328.56 977.842 1325.13C977.842 1321.7 973.981 1319.72 967.612 1319.72ZM967.612 1321.89C972.298 1321.89 975.07 1323.05 975.07 1325.13C975.07 1327.17 972.298 1328.36 967.612 1328.36C962.959 1328.36 960.154 1327.17 960.154 1325.13C960.154 1323.05 962.959 1321.89 967.612 1321.89ZM965.863 1303.45V1304.34C965.863 1307.7 961.012 1310.38 955.666 1310.97L956.656 1313.12C962.827 1312.39 968.305 1309.12 968.305 1304.34V1303.45H965.863ZM967.018 1303.45V1304.34C967.018 1309.12 972.463 1312.39 978.634 1313.12L979.624 1310.97C974.278 1310.38 969.427 1307.7 969.427 1304.34V1303.45H967.018ZM956.623 1302.26V1304.47H978.7V1302.26H956.623ZM1006.19 1300.71V1330.61H1008.93V1300.71H1006.19ZM993.185 1303.02C988.796 1303.02 985.628 1307.08 985.628 1313.41C985.628 1319.78 988.796 1323.84 993.185 1323.84C997.607 1323.84 1000.77 1319.78 1000.77 1313.41C1000.77 1307.08 997.607 1303.02 993.185 1303.02ZM993.185 1305.49C996.122 1305.49 998.135 1308.6 998.135 1313.41C998.135 1318.26 996.122 1321.43 993.185 1321.43C990.281 1321.43 988.235 1318.26 988.235 1313.41C988.235 1308.6 990.281 1305.49 993.185 1305.49ZM1025.72 1310.48V1312.72H1040.11V1310.48H1025.72ZM1031.47 1311.83V1317.8H1034.21V1311.83H1031.47ZM1025.72 1302.69V1311.47H1028.46V1304.93H1039.91V1302.69H1025.72ZM1044.6 1300.74V1323.05H1047.34V1300.74H1044.6ZM1028.07 1327.67V1329.91H1048.33V1327.67H1028.07ZM1028.07 1321.6V1328.63H1030.77V1321.6H1028.07ZM1023.45 1319.29C1029.02 1319.29 1036.09 1319.12 1042.39 1318.2L1042.22 1316.19C1036.09 1316.91 1028.83 1317.04 1023.08 1317.04L1023.45 1319.29ZM481.943 1348.32V1353.66C481.943 1359.11 478.544 1364.85 474.221 1367.03L475.904 1369.2C480.623 1366.7 484.187 1360.26 484.187 1353.66V1348.32H481.943ZM482.438 1348.32V1353.66C482.438 1360.06 485.903 1366.17 490.523 1368.64L492.206 1366.47C487.982 1364.35 484.649 1358.91 484.649 1353.66V1348.32H482.438ZM494.813 1345.74V1375.57H497.585V1345.74H494.813ZM496.925 1357.82V1360.13H502.469V1357.82H496.925ZM525.401 1345.77V1363.53H528.14V1345.77H525.401ZM527.315 1353.36V1355.67H532.562V1353.36H527.315ZM509.33 1365.01V1375.18H528.14V1365.01H509.33ZM525.467 1367.19V1372.97H512.036V1367.19H525.467ZM506.294 1359.73V1362.01H508.637C514.148 1362.01 518.075 1361.81 522.794 1361.02L522.563 1358.78C517.91 1359.6 514.049 1359.73 508.637 1359.73H506.294ZM506.228 1347.36V1349.6H516.953V1353.43H506.294V1361.02H508.967V1355.54H519.659V1347.36H506.228ZM536.586 1348.41V1362.24H550.281V1348.41H536.586ZM547.608 1350.63V1360.03H539.259V1350.63H547.608ZM555.759 1345.71V1367.59H558.498V1345.71H555.759ZM557.64 1354.82V1357.09H562.92V1354.82H557.64ZM539.919 1372.67V1374.91H559.851V1372.67H539.919ZM539.919 1365.51V1373.63H542.658V1365.51H539.919ZM596.252 1345.74V1364.22H598.892V1345.74H596.252ZM590.873 1346.27V1364.12H593.48V1346.27H590.873ZM585.659 1360.53V1362.47H592.16V1360.53H585.659ZM580.379 1358.38V1364.12H582.986V1358.38H580.379ZM573.878 1359.47C578.003 1359.47 584.372 1359.4 589.487 1358.35L589.289 1356.47C584.339 1357.26 577.673 1357.32 573.581 1357.32L573.878 1359.47ZM578.828 1365.31V1375.18H598.892V1365.31H596.186V1368.08H581.534V1365.31H578.828ZM581.534 1370.19H596.186V1373H581.534V1370.19ZM581.633 1346.76C577.739 1346.76 575.132 1348.48 575.132 1351.19C575.132 1353.93 577.739 1355.64 581.633 1355.64C585.494 1355.64 588.101 1353.93 588.101 1351.19C588.101 1348.48 585.494 1346.76 581.633 1346.76ZM581.633 1348.71C584.042 1348.71 585.626 1349.67 585.626 1351.19C585.626 1352.74 584.042 1353.66 581.633 1353.66C579.191 1353.66 577.607 1352.74 577.607 1351.19C577.607 1349.67 579.191 1348.71 581.633 1348.71ZM611.429 1348.32V1353.66C611.429 1359.11 608.03 1364.85 603.707 1367.03L605.39 1369.2C610.109 1366.7 613.673 1360.26 613.673 1353.66V1348.32H611.429ZM611.924 1348.32V1353.66C611.924 1360.06 615.389 1366.17 620.009 1368.64L621.692 1366.47C617.468 1364.35 614.135 1358.91 614.135 1353.66V1348.32H611.924ZM624.299 1345.74V1375.57H627.071V1345.74H624.299ZM626.411 1357.82V1360.13H631.955V1357.82H626.411ZM656.142 1345.71V1375.61H658.881V1345.71H656.142ZM643.14 1348.02C638.751 1348.02 635.583 1352.08 635.583 1358.41C635.583 1364.78 638.751 1368.84 643.14 1368.84C647.562 1368.84 650.73 1364.78 650.73 1358.41C650.73 1352.08 647.562 1348.02 643.14 1348.02ZM643.14 1350.49C646.077 1350.49 648.09 1353.6 648.09 1358.41C648.09 1363.26 646.077 1366.43 643.14 1366.43C640.236 1366.43 638.19 1363.26 638.19 1358.41C638.19 1353.6 640.236 1350.49 643.14 1350.49ZM668.316 1361.81V1364.02H688.809V1361.81H668.316ZM664.851 1369.47V1371.75H691.878V1369.47H664.851ZM668.316 1348.28V1362.51H671.088V1350.53H688.479V1348.28H668.316ZM670.197 1354.95V1357.13H687.852V1354.95H670.197ZM695.176 1359.6V1361.68H722.236V1359.6H695.176ZM698.377 1364.09V1366.04H716.164V1368.58H698.476V1373.96H701.182V1370.46H718.837V1364.09H698.377ZM698.476 1373.23V1375.21H719.794V1373.23H698.476ZM698.608 1346.6V1348.55H716.065V1350.96H698.674V1356.04H701.38V1352.8H718.738V1346.6H698.608ZM698.674 1355.38V1357.36H719.299V1355.38H698.674ZM755.271 1345.71V1375.61H758.01V1345.71H755.271ZM742.269 1348.02C737.88 1348.02 734.712 1352.08 734.712 1358.41C734.712 1364.78 737.88 1368.84 742.269 1368.84C746.691 1368.84 749.859 1364.78 749.859 1358.41C749.859 1352.08 746.691 1348.02 742.269 1348.02ZM742.269 1350.49C745.206 1350.49 747.219 1353.6 747.219 1358.41C747.219 1363.26 745.206 1366.43 742.269 1366.43C739.365 1366.43 737.319 1363.26 737.319 1358.41C737.319 1353.6 739.365 1350.49 742.269 1350.49ZM770.613 1355.84V1361.48H773.319V1355.84H770.613ZM781.569 1355.84V1361.48H784.275V1355.84H781.569ZM763.947 1360.49V1362.7H790.908V1360.49H763.947ZM777.411 1364.95C771.009 1364.95 767.181 1366.83 767.181 1370.23C767.181 1373.63 771.009 1375.54 777.411 1375.54C783.813 1375.54 787.641 1373.63 787.641 1370.23C787.641 1366.83 783.813 1364.95 777.411 1364.95ZM777.411 1367.06C782.097 1367.06 784.869 1368.21 784.869 1370.23C784.869 1372.27 782.097 1373.4 777.411 1373.4C772.758 1373.4 769.953 1372.27 769.953 1370.23C769.953 1368.21 772.758 1367.06 777.411 1367.06ZM777.444 1346.27C770.943 1346.27 766.95 1348.35 766.95 1351.85C766.95 1355.31 770.943 1357.36 777.444 1357.36C783.912 1357.36 787.938 1355.31 787.938 1351.85C787.938 1348.35 783.912 1346.27 777.444 1346.27ZM777.444 1348.41C782.196 1348.41 785.133 1349.67 785.133 1351.85C785.133 1353.99 782.196 1355.25 777.444 1355.25C772.692 1355.25 769.755 1353.99 769.755 1351.85C769.755 1349.67 772.692 1348.41 777.444 1348.41ZM814.732 1345.64V1362.11H817.471V1345.64H814.732ZM816.316 1352.8V1355.11H821.893V1352.8H816.316ZM798.529 1363.63V1365.71H814.798V1368.31H798.595V1373.92H801.301V1370.29H817.471V1363.63H798.529ZM798.595 1373.13V1375.24H818.56V1373.13H798.595ZM794.404 1348.41V1350.56H812.026V1348.41H794.404ZM803.215 1351.88C798.859 1351.88 796.054 1353.76 796.054 1356.8C796.054 1359.8 798.859 1361.65 803.215 1361.65C807.505 1361.65 810.343 1359.8 810.343 1356.8C810.343 1353.76 807.505 1351.88 803.215 1351.88ZM803.215 1353.89C805.954 1353.89 807.736 1355.01 807.736 1356.8C807.736 1358.55 805.954 1359.67 803.215 1359.67C800.443 1359.67 798.661 1358.55 798.661 1356.8C798.661 1355.01 800.443 1353.89 803.215 1353.89ZM801.829 1345.41V1349.9H804.568V1345.41H801.829ZM844.797 1346.8V1348.45C844.797 1352.7 839.55 1356.27 834.105 1357.09L835.194 1359.3C841.398 1358.25 847.206 1354.16 847.206 1348.45V1346.8H844.797ZM845.292 1346.8V1348.45C845.292 1354.09 851.133 1358.25 857.271 1359.3L858.36 1357.09C852.981 1356.27 847.668 1352.61 847.668 1348.45V1346.8H845.292ZM844.797 1364.22V1375.57H847.503V1364.22H844.797ZM832.752 1362.54V1364.82H859.713V1362.54H832.752ZM878.591 1364.09V1365.71C878.591 1368.58 876.347 1371.78 872.585 1373.13L873.971 1375.18C878.261 1373.53 880.703 1369.6 880.703 1365.71V1364.09H878.591ZM879.185 1364.09V1365.71C879.185 1369.67 881.132 1373.76 885.422 1375.44L886.577 1373.36C883.013 1371.91 881.231 1368.71 881.231 1365.71V1364.09H879.185ZM889.613 1364.09V1365.71C889.613 1368.28 887.798 1371.75 884.267 1373.36L885.422 1375.44C889.679 1373.63 891.659 1369.2 891.659 1365.71V1364.09H889.613ZM890.174 1364.09V1365.71C890.174 1369.83 892.55 1373.59 896.906 1375.18L898.292 1373.13C894.497 1371.84 892.286 1368.78 892.286 1365.71V1364.09H890.174ZM892.847 1345.77V1362.8H895.619V1345.77H892.847ZM879.614 1347.49C875.093 1347.49 871.826 1350.33 871.826 1354.45C871.826 1358.58 875.093 1361.38 879.614 1361.38C884.135 1361.38 887.369 1358.58 887.369 1354.45C887.369 1350.33 884.135 1347.49 879.614 1347.49ZM879.614 1349.77C882.584 1349.77 884.729 1351.68 884.729 1354.45C884.729 1357.23 882.584 1359.11 879.614 1359.11C876.644 1359.11 874.499 1357.23 874.499 1354.45C874.499 1351.68 876.644 1349.77 879.614 1349.77ZM909.476 1348.02C905.12 1348.02 902.051 1352.08 902.051 1358.41C902.051 1364.78 905.12 1368.84 909.476 1368.84C913.799 1368.84 916.901 1364.78 916.901 1358.41C916.901 1352.08 913.799 1348.02 909.476 1348.02ZM909.476 1350.49C912.347 1350.49 914.294 1353.6 914.294 1358.41C914.294 1363.26 912.347 1366.43 909.476 1366.43C906.605 1366.43 904.658 1363.26 904.658 1358.41C904.658 1353.6 906.605 1350.49 909.476 1350.49ZM923.369 1345.71V1375.61H926.075V1345.71H923.369ZM916.01 1357.09V1359.34H924.557V1357.09H916.01ZM938.48 1361.09V1370.03H941.186V1361.09H938.48ZM949.502 1361.09V1370.03H952.241V1361.09H949.502ZM931.88 1369.5V1371.78H958.907V1369.5H931.88ZM945.344 1347.62C939.008 1347.62 934.487 1350.63 934.487 1355.31C934.487 1359.96 939.008 1362.97 945.344 1362.97C951.647 1362.97 956.168 1359.96 956.168 1355.31C956.168 1350.63 951.647 1347.62 945.344 1347.62ZM945.344 1349.8C950.129 1349.8 953.528 1351.98 953.528 1355.31C953.528 1358.61 950.129 1360.79 945.344 1360.79C940.559 1360.79 937.127 1358.61 937.127 1355.31C937.127 1351.98 940.559 1349.8 945.344 1349.8Z" fill="#393939"/>
                <path d="M498.44 1241.52V1268.44H503.76V1241.52H498.44ZM502.24 1252.12V1256.48H508.68V1252.12H502.24ZM479.88 1273.68V1277.92H505.08V1273.68H479.88ZM479.88 1265.64V1275.56H485.2V1265.64H479.88ZM484.92 1243.88C479.24 1243.88 474.84 1247.84 474.84 1253.32C474.84 1258.76 479.24 1262.72 484.92 1262.72C490.6 1262.72 495 1258.76 495 1253.32C495 1247.84 490.6 1243.88 484.92 1243.88ZM484.92 1248.52C487.68 1248.52 489.8 1250.28 489.8 1253.32C489.8 1256.32 487.68 1258.08 484.92 1258.08C482.2 1258.08 480.04 1256.32 480.04 1253.32C480.04 1250.28 482.2 1248.52 484.92 1248.52ZM531.237 1251.08V1255.36H539.877V1251.08H531.237ZM537.077 1241.56V1268.56H542.397V1241.56H537.077ZM517.957 1273.68V1277.92H543.237V1273.68H517.957ZM517.957 1266.28V1276.2H523.277V1266.28H517.957ZM519.957 1246.4V1248.72C519.957 1253.4 517.317 1258.24 511.197 1260.24L513.877 1264.48C520.997 1262.12 524.277 1255.68 524.277 1248.72V1246.4H519.957ZM521.077 1246.4V1248.72C521.077 1255.32 524.237 1261.48 531.117 1263.76L533.717 1259.6C527.877 1257.64 525.357 1253.04 525.357 1248.72V1246.4H521.077ZM512.637 1244.04V1248.24H532.557V1244.04H512.637ZM572.034 1241.56V1269.24H577.354V1241.56H572.034ZM575.834 1252.84V1257.2H582.274V1252.84H575.834ZM548.194 1245.4V1249.56H569.994V1245.4H548.194ZM559.114 1250.88C553.754 1250.88 549.994 1253.8 549.994 1258.04C549.994 1262.28 553.754 1265.16 559.114 1265.16C564.434 1265.16 568.194 1262.28 568.194 1258.04C568.194 1253.8 564.434 1250.88 559.114 1250.88ZM559.114 1254.92C561.474 1254.92 563.114 1256.04 563.114 1258.04C563.114 1260.04 561.474 1261.12 559.114 1261.12C556.754 1261.12 555.114 1260.04 555.114 1258.04C555.114 1256.04 556.754 1254.92 559.114 1254.92ZM556.434 1241.48V1247.44H561.754V1241.48H556.434ZM553.474 1273.68V1277.92H578.674V1273.68H553.474ZM553.474 1267.16V1275.52H558.794V1267.16H553.474ZM604.316 1248.56V1249C604.316 1252.2 601.796 1255.24 596.076 1256.28L598.196 1260.4C605.316 1258.96 608.596 1254.48 608.596 1249V1248.56H604.316ZM605.396 1248.56V1249C605.396 1254.24 608.676 1258.52 615.676 1259.84L617.756 1255.76C612.156 1254.76 609.676 1252 609.676 1249V1248.56H605.396ZM597.076 1245.2V1249.28H616.876V1245.2H597.076ZM604.316 1241.6V1248.12H609.676V1241.6H604.316ZM604.276 1262.56V1277.44H609.596V1262.56H604.276ZM620.476 1241.52V1278.56H625.756V1241.52H620.476ZM595.516 1266.28C602.116 1266.28 610.716 1266.16 618.716 1264.72L618.356 1260.88C610.596 1261.92 601.596 1261.96 594.876 1261.96L595.516 1266.28ZM633.393 1244.84V1269.76H651.193V1244.84H633.393ZM645.993 1249V1265.56H638.633V1249H645.993ZM656.953 1241.48V1278.64H662.313V1241.48H656.953ZM684.796 1243.76V1248.04C684.796 1252.2 682.756 1256.76 677.596 1259.04L680.396 1263.16C686.436 1260.6 688.956 1254.32 688.956 1248.04V1243.76H684.796ZM685.756 1243.76V1248.04C685.756 1254.08 688.196 1259.68 693.956 1261.96L696.796 1257.92C691.916 1256 689.916 1252 689.916 1248.04V1243.76H685.756ZM704.636 1241.56V1264.16H709.676V1241.56H704.636ZM700.196 1250.52V1254.8H706.076V1250.52H700.196ZM696.796 1242.24V1263H701.756V1242.24H696.796ZM697.116 1264.68C689.316 1264.68 684.396 1267.28 684.396 1271.64C684.396 1275.96 689.316 1278.56 697.116 1278.56C704.876 1278.56 709.876 1275.96 709.876 1271.64C709.876 1267.28 704.876 1264.68 697.116 1264.68ZM697.116 1268.68C701.876 1268.68 704.516 1269.68 704.516 1271.64C704.516 1273.6 701.876 1274.56 697.116 1274.56C692.356 1274.56 689.676 1273.6 689.676 1271.64C689.676 1269.68 692.356 1268.68 697.116 1268.68ZM738.993 1241.52V1263.28H744.313V1241.52H738.993ZM742.433 1250.24V1254.6H748.953V1250.24H742.433ZM719.393 1264.64V1268.16H739.073V1269.76H719.433V1276H724.713V1273.04H744.313V1264.64H719.393ZM719.433 1274.8V1278.32H745.593V1274.8H719.433ZM723.312 1256.32V1261.6H728.633V1256.32H723.312ZM715.033 1262.96C721.433 1262.96 729.953 1262.92 737.753 1261.56L737.353 1258.32C729.873 1259.32 721.033 1259.36 714.473 1259.36L715.033 1262.96ZM715.433 1243.84V1247.36H736.433V1243.84H715.433ZM725.953 1248.04C720.433 1248.04 716.913 1249.84 716.913 1252.88C716.913 1255.96 720.433 1257.76 725.953 1257.76C731.433 1257.76 734.953 1255.96 734.953 1252.88C734.953 1249.84 731.433 1248.04 725.953 1248.04ZM725.953 1251.32C728.473 1251.32 729.913 1251.8 729.913 1252.88C729.913 1253.96 728.473 1254.48 725.953 1254.48C723.433 1254.48 721.953 1253.96 721.953 1252.88C721.953 1251.8 723.433 1251.32 725.953 1251.32ZM723.312 1241.2V1245.8H728.633V1241.2H723.312ZM768.469 1242.04C759.989 1242.04 755.069 1244.28 755.069 1248.36C755.069 1252.44 759.989 1254.68 768.469 1254.68C776.909 1254.68 781.869 1252.44 781.869 1248.36C781.869 1244.28 776.909 1242.04 768.469 1242.04ZM768.469 1245.92C773.829 1245.92 776.349 1246.72 776.349 1248.36C776.349 1250.08 773.829 1250.8 768.469 1250.8C763.109 1250.8 760.589 1250.08 760.589 1248.36C760.589 1246.72 763.109 1245.92 768.469 1245.92ZM751.709 1256.4V1260.6H785.189V1256.4H751.709ZM755.549 1262.68V1266.64H775.909V1268.52H755.589V1275.48H760.829V1272.2H781.149V1262.68H755.549ZM755.589 1274.32V1278.32H782.109V1274.32H755.589ZM798.272 1256.56V1260.72H831.752V1256.56H798.272ZM802.112 1262.72V1266.64H822.472V1268.56H802.152V1275.52H807.392V1272.24H827.712V1262.72H802.112ZM802.152 1274.36V1278.32H828.672V1274.36H802.152ZM811.832 1244.4V1245.36C811.832 1248 808.192 1250.96 799.752 1251.52L801.392 1255.52C811.232 1254.84 816.472 1250.64 816.472 1245.36V1244.4H811.832ZM813.552 1244.4V1245.36C813.552 1250.68 818.832 1254.84 828.672 1255.52L830.312 1251.52C821.832 1250.96 818.192 1248.04 818.192 1245.36V1244.4H813.552ZM801.312 1242.68V1246.8H828.752V1242.68H801.312ZM860.589 1241.52V1278.56H865.949V1241.52H860.589ZM849.669 1245.36V1246.32C849.669 1256.24 845.829 1262.96 835.189 1268.08L837.949 1272.32C851.109 1265.96 854.949 1256.68 854.949 1245.36H849.669ZM837.149 1245.36V1249.56H852.189V1245.36H837.149ZM895.546 1241.48V1278.64H900.906V1241.48H895.546ZM899.706 1255.2V1259.56H906.266V1255.2H899.706ZM873.306 1265.32V1269.72H876.426C882.866 1269.72 887.946 1269.56 893.546 1268.56L893.026 1264.16C887.586 1265.12 882.666 1265.32 876.426 1265.32H873.306ZM873.306 1244.92V1267.44H878.586V1249.2H890.586V1244.92H873.306Z" fill="#393939"/>
                </svg>